<?xml version="1.0" encoding="UTF-8"?>
<!DOCTYPE svg PUBLIC "-//W3C//DTD SVG 1.1//EN" "http://www.w3.org/Graphics/SVG/1.1/DTD/svg11.dtd">
<!-- Creator: CorelDRAW -->
<svg xmlns="http://www.w3.org/2000/svg" xml:space="preserve" width="0.44239in" height="0.349in" version="1.1" style="shape-rendering:geometricPrecision; text-rendering:geometricPrecision; image-rendering:optimizeQuality; fill-rule:evenodd; clip-rule:evenodd"
viewBox="0 0 17.92 14.14"
 xmlns:xlink="http://www.w3.org/1999/xlink"
 xmlns:xodm="http://www.corel.com/coreldraw/odm/2003">
 <defs>
  <style type="text/css">
   <![CDATA[
    .str0 {stroke:#4B4B4D;stroke-width:0.28;stroke-miterlimit:2.61313}
    .fil0 {fill:none}
   ]]>
  </style>
 </defs>
 <g id="Layer_x0020_1">
  <metadata id="CorelCorpID_0Corel-Layer"/>
  <g id="_2090853440560">
   <path class="fil0 str0" d="M4.47 5.97l11.79 0c0.79,0 1.81,0.74 1.43,1.43l-2.81 5.15c-0.38,0.69 -0.65,1.43 -1.43,1.43l-11.79 0c-0.79,0 -1.81,-0.74 -1.43,-1.43l2.81 -5.15c0.38,-0.69 0.65,-1.43 1.43,-1.43z"/>
   <path class="fil0 str0" d="M7.88 1.76c-0.16,-0.92 -0.97,-1.62 -1.93,-1.62l-3.62 0c-0.96,0 -1.77,0.7 -1.93,1.62l-0.03 0 0 0.34 0 0 0 8.04 2.1 -3.85c0.38,-0.69 0.65,-1.43 1.43,-1.43l11.12 0 0 -1.27c0,-1 -0.82,-1.82 -1.82,-1.82l-5.34 0z"/>
  </g>
 </g>
</svg>
